<svg width="340" height="111" viewBox="0 0 340 111" fill="none" xmlns="http://www.w3.org/2000/svg">
<path d="M187.678 12.3225C185.364 9.99014 182.61 8.14 179.576 6.87922C176.542 5.61843 173.288 4.97205 170.003 4.9775C166.716 4.97236 163.462 5.61886 160.427 6.87961C157.392 8.14035 154.638 9.99032 152.322 12.3225C142.575 22.0675 142.575 37.93 152.322 47.6775C154.638 50.0103 157.393 51.8607 160.428 53.1214C163.463 54.3822 166.718 55.0284 170.005 55.0225C173.29 55.0283 176.544 54.3823 179.578 53.1219C182.612 51.8616 185.366 50.0119 187.68 47.68C197.428 37.935 197.428 22.0725 187.678 12.3225ZM170.452 10H169.555C169.707 9.9975 169.852 9.9775 170.005 9.9775C170.157 9.9775 170.3 9.9975 170.452 10ZM185.608 42.5H180L176.855 48.79C174.661 49.6005 172.341 50.0177 170.003 50.0225C167.659 50.0182 165.335 49.6001 163.138 48.7875L160 42.525H154.412C152.351 39.9622 150.957 36.9284 150.355 33.695L155 27.5L151.96 21.4175C152.93 19.354 154.248 17.4731 155.858 15.8575C158.109 13.5976 160.87 11.9098 163.907 10.935L170 15L176.095 10.9375C179.132 11.913 181.892 13.5998 184.145 15.8575C185.752 17.4712 187.07 19.3494 188.04 21.41L185 27.5L189.645 33.695C189.046 36.918 187.659 39.9428 185.608 42.5Z" fill="#FF0000"/>
<path d="M161.25 27.5L165 37.5H175L178.75 27.5L170 21.25L161.25 27.5Z" fill="#FF0000"/>
<path d="M2.916 76.972H20.628L20.61 81.364H8.208V87.898H18.954V92.2H8.208V103H2.916V76.972ZM31.5818 103.36C29.7578 103.36 28.1678 102.97 26.8118 102.19C25.4678 101.41 24.4238 100.306 23.6798 98.878C22.9478 97.45 22.5818 95.758 22.5818 93.802C22.5818 91.846 22.9478 90.136 23.6798 88.672C24.4238 87.208 25.4678 86.068 26.8118 85.252C28.1678 84.436 29.7638 84.028 31.5998 84.028C33.4358 84.028 35.0258 84.43 36.3698 85.234C37.7138 86.026 38.7518 87.154 39.4838 88.618C40.2158 90.082 40.5818 91.81 40.5818 93.802C40.5818 95.674 40.2218 97.33 39.5018 98.77C38.7938 100.198 37.7678 101.32 36.4238 102.136C35.0918 102.952 33.4778 103.36 31.5818 103.36ZM31.5998 99.454C32.5238 99.454 33.2678 99.184 33.8318 98.644C34.3958 98.104 34.8038 97.396 35.0558 96.52C35.3198 95.632 35.4518 94.666 35.4518 93.622C35.4518 92.638 35.3318 91.708 35.0918 90.832C34.8638 89.956 34.4678 89.248 33.9038 88.708C33.3398 88.168 32.5718 87.898 31.5998 87.898C30.6758 87.898 29.9258 88.156 29.3498 88.672C28.7858 89.176 28.3718 89.866 28.1078 90.742C27.8438 91.606 27.7118 92.566 27.7118 93.622C27.7118 94.594 27.8318 95.53 28.0718 96.43C28.3118 97.318 28.7138 98.044 29.2778 98.608C29.8418 99.172 30.6158 99.454 31.5998 99.454ZM52.0779 103.36C50.2539 103.36 48.6639 102.97 47.3079 102.19C45.9639 101.41 44.9199 100.306 44.1759 98.878C43.4439 97.45 43.0779 95.758 43.0779 93.802C43.0779 91.846 43.4439 90.136 44.1759 88.672C44.9199 87.208 45.9639 86.068 47.3079 85.252C48.6639 84.436 50.2599 84.028 52.0959 84.028C53.9319 84.028 55.5219 84.43 56.8659 85.234C58.2099 86.026 59.2479 87.154 59.9799 88.618C60.7119 90.082 61.0779 91.81 61.0779 93.802C61.0779 95.674 60.7179 97.33 59.9979 98.77C59.2899 100.198 58.2639 101.32 56.9199 102.136C55.5879 102.952 53.9739 103.36 52.0779 103.36ZM52.0959 99.454C53.0199 99.454 53.7639 99.184 54.3279 98.644C54.8919 98.104 55.2999 97.396 55.5519 96.52C55.8159 95.632 55.9479 94.666 55.9479 93.622C55.9479 92.638 55.8279 91.708 55.5879 90.832C55.3599 89.956 54.9639 89.248 54.3999 88.708C53.8359 88.168 53.0679 87.898 52.0959 87.898C51.1719 87.898 50.4219 88.156 49.8459 88.672C49.2819 89.176 48.8679 89.866 48.6039 90.742C48.3399 91.606 48.2079 92.566 48.2079 93.622C48.2079 94.594 48.3279 95.53 48.5679 96.43C48.8079 97.318 49.2099 98.044 49.7739 98.608C50.3379 99.172 51.1119 99.454 52.0959 99.454ZM75.3244 88.042H71.1844L71.2204 97.96C71.2204 98.416 71.2744 98.758 71.3824 98.986C71.5024 99.202 71.6824 99.346 71.9224 99.418C72.1744 99.478 72.4924 99.508 72.8764 99.508H75.3784V102.748C75.1384 102.856 74.7604 102.958 74.2444 103.054C73.7404 103.15 73.0324 103.198 72.1204 103.198C70.4884 103.198 69.2224 102.988 68.3224 102.568C67.4344 102.148 66.8164 101.56 66.4684 100.804C66.1204 100.048 65.9464 99.172 65.9464 98.176V88.042H62.9224V84.388H66.1264L67.4404 78.772H71.1844V84.37H75.3244V88.042ZM89.575 103.36C88.651 103.36 87.853 103.24 87.181 103C86.509 102.76 85.939 102.442 85.471 102.046C85.003 101.638 84.619 101.188 84.319 100.696C84.019 100.204 83.785 99.7 83.617 99.184L83.023 103H79.207V76.252H84.481V86.908C84.709 86.512 85.003 86.14 85.363 85.792C85.723 85.444 86.143 85.138 86.623 84.874C87.103 84.61 87.631 84.406 88.207 84.262C88.795 84.106 89.419 84.028 90.079 84.028C92.395 84.028 94.207 84.862 95.515 86.53C96.835 88.198 97.495 90.55 97.495 93.586C97.495 95.554 97.195 97.27 96.595 98.734C95.995 100.198 95.107 101.338 93.931 102.154C92.755 102.958 91.303 103.36 89.575 103.36ZM88.423 99.58C89.551 99.58 90.487 99.118 91.231 98.194C91.987 97.258 92.365 95.698 92.365 93.514C92.365 91.582 92.005 90.154 91.285 89.23C90.577 88.306 89.611 87.844 88.387 87.844C87.511 87.844 86.785 88.054 86.209 88.474C85.633 88.882 85.201 89.506 84.913 90.346C84.637 91.186 84.493 92.242 84.481 93.514C84.481 95.71 84.805 97.27 85.453 98.194C86.113 99.118 87.103 99.58 88.423 99.58ZM106.298 103.36C105.11 103.36 104.042 103.138 103.094 102.694C102.146 102.25 101.396 101.608 100.844 100.768C100.292 99.916 100.016 98.884 100.016 97.672C100.016 95.632 100.778 94.084 102.302 93.028C103.826 91.96 106.232 91.408 109.52 91.372L111.842 91.336V90.22C111.842 89.368 111.59 88.714 111.086 88.258C110.594 87.79 109.826 87.562 108.782 87.574C108.014 87.586 107.282 87.766 106.586 88.114C105.902 88.462 105.434 89.068 105.182 89.932H100.808C100.88 88.588 101.27 87.484 101.978 86.62C102.686 85.744 103.646 85.096 104.858 84.676C106.082 84.244 107.468 84.028 109.016 84.028C110.924 84.028 112.454 84.268 113.606 84.748C114.758 85.216 115.592 85.894 116.108 86.782C116.624 87.658 116.882 88.702 116.882 89.914V103H112.49L112.058 99.796C111.422 101.14 110.624 102.07 109.664 102.586C108.716 103.102 107.594 103.36 106.298 103.36ZM108.062 99.904C108.542 99.904 109.004 99.82 109.448 99.652C109.904 99.472 110.306 99.238 110.654 98.95C111.014 98.65 111.302 98.314 111.518 97.942C111.734 97.57 111.842 97.186 111.842 96.79V94.036L109.952 94.072C109.076 94.084 108.26 94.192 107.504 94.396C106.748 94.588 106.136 94.906 105.668 95.35C105.212 95.794 104.984 96.394 104.984 97.15C104.984 98.014 105.284 98.692 105.884 99.184C106.484 99.664 107.21 99.904 108.062 99.904ZM127.475 103.324C126.107 103.324 125.021 103.162 124.217 102.838C123.413 102.514 122.819 102.088 122.435 101.56C122.051 101.02 121.805 100.426 121.697 99.778C121.589 99.118 121.535 98.452 121.535 97.78V76.252H126.683V97.132C126.683 97.816 126.827 98.374 127.115 98.806C127.415 99.226 127.973 99.484 128.789 99.58L129.671 99.634V102.874C129.311 102.994 128.945 103.096 128.573 103.18C128.201 103.276 127.835 103.324 127.475 103.324ZM138.655 103.324C137.287 103.324 136.201 103.162 135.397 102.838C134.593 102.514 133.999 102.088 133.615 101.56C133.231 101.02 132.985 100.426 132.877 99.778C132.769 99.118 132.715 98.452 132.715 97.78V76.252H137.863V97.132C137.863 97.816 138.007 98.374 138.295 98.806C138.595 99.226 139.153 99.484 139.969 99.58L140.851 99.634V102.874C140.491 102.994 140.125 103.096 139.753 103.18C139.381 103.276 139.015 103.324 138.655 103.324ZM154.55 95.764C154.55 97.42 154.37 98.812 154.01 99.94C153.65 101.068 152.99 101.92 152.03 102.496C151.07 103.072 149.69 103.36 147.89 103.36C147.062 103.36 146.21 103.288 145.334 103.144C144.458 103.012 143.816 102.892 143.408 102.784L143.516 97.978C143.864 98.05 144.26 98.146 144.704 98.266C145.16 98.386 145.664 98.446 146.216 98.446C147.428 98.446 148.244 98.128 148.664 97.492C149.084 96.844 149.294 95.8 149.294 94.36V76.972H154.55V95.764ZM163.472 94.9C163.46 95.848 163.61 96.676 163.922 97.384C164.234 98.08 164.684 98.62 165.272 99.004C165.872 99.376 166.592 99.562 167.432 99.562C168.332 99.562 169.118 99.37 169.79 98.986C170.474 98.602 170.948 97.972 171.212 97.096H175.946C175.742 98.416 175.214 99.544 174.362 100.48C173.522 101.416 172.502 102.13 171.302 102.622C170.102 103.114 168.854 103.36 167.558 103.36C165.722 103.36 164.102 102.976 162.698 102.208C161.306 101.428 160.22 100.33 159.44 98.914C158.66 97.498 158.27 95.83 158.27 93.91C158.27 92.05 158.624 90.376 159.332 88.888C160.04 87.388 161.066 86.206 162.41 85.342C163.766 84.466 165.392 84.028 167.288 84.028C169.184 84.028 170.774 84.43 172.058 85.234C173.354 86.026 174.326 87.136 174.974 88.564C175.634 89.98 175.964 91.618 175.964 93.478V94.9H163.472ZM163.454 91.768H171.05C171.05 91.024 170.912 90.34 170.636 89.716C170.36 89.092 169.94 88.6 169.376 88.24C168.824 87.88 168.128 87.7 167.288 87.7C166.472 87.7 165.776 87.898 165.2 88.294C164.636 88.678 164.204 89.182 163.904 89.806C163.604 90.43 163.454 91.084 163.454 91.768ZM179.613 103V84.388H184.671V88.798C184.971 87.85 185.391 87.022 185.931 86.314C186.483 85.594 187.149 85.036 187.929 84.64C188.709 84.232 189.591 84.028 190.575 84.028C190.743 84.028 190.899 84.04 191.043 84.064C191.199 84.076 191.313 84.1 191.385 84.136V89.14C191.277 89.092 191.145 89.062 190.989 89.05C190.845 89.038 190.713 89.026 190.593 89.014C189.561 88.93 188.679 88.96 187.947 89.104C187.215 89.248 186.621 89.494 186.165 89.842C185.709 90.19 185.379 90.616 185.175 91.12C184.971 91.624 184.869 92.188 184.869 92.812V103H179.613ZM201.565 103.36C200.269 103.36 199.021 103.15 197.821 102.73C196.621 102.298 195.607 101.626 194.779 100.714C193.951 99.79 193.423 98.596 193.195 97.132H197.749C197.905 97.792 198.187 98.314 198.595 98.698C199.015 99.082 199.489 99.358 200.017 99.526C200.545 99.682 201.049 99.76 201.529 99.76C202.537 99.76 203.347 99.604 203.959 99.292C204.583 98.968 204.895 98.476 204.895 97.816C204.895 97.312 204.709 96.91 204.337 96.61C203.977 96.31 203.377 96.082 202.537 95.926L199.261 95.242C197.617 94.894 196.297 94.306 195.301 93.478C194.305 92.638 193.795 91.45 193.771 89.914C193.771 88.798 194.065 87.796 194.653 86.908C195.253 86.02 196.135 85.318 197.299 84.802C198.463 84.286 199.891 84.028 201.583 84.028C203.875 84.028 205.705 84.532 207.073 85.54C208.453 86.548 209.155 87.97 209.179 89.806H204.787C204.655 89.086 204.295 88.534 203.707 88.15C203.131 87.754 202.405 87.556 201.529 87.556C200.617 87.556 199.867 87.718 199.279 88.042C198.691 88.366 198.397 88.858 198.397 89.518C198.397 90.01 198.637 90.4 199.117 90.688C199.597 90.964 200.341 91.204 201.349 91.408L204.373 92.092C205.417 92.344 206.263 92.692 206.911 93.136C207.571 93.568 208.081 94.042 208.441 94.558C208.801 95.074 209.047 95.596 209.179 96.124C209.323 96.64 209.395 97.108 209.395 97.528C209.395 98.764 209.065 99.82 208.405 100.696C207.745 101.56 206.827 102.22 205.651 102.676C204.475 103.132 203.113 103.36 201.565 103.36ZM217.402 94.9C217.39 95.848 217.54 96.676 217.852 97.384C218.164 98.08 218.614 98.62 219.202 99.004C219.802 99.376 220.522 99.562 221.362 99.562C222.262 99.562 223.048 99.37 223.72 98.986C224.404 98.602 224.878 97.972 225.142 97.096H229.876C229.672 98.416 229.144 99.544 228.292 100.48C227.452 101.416 226.432 102.13 225.232 102.622C224.032 103.114 222.784 103.36 221.488 103.36C219.652 103.36 218.032 102.976 216.628 102.208C215.236 101.428 214.15 100.33 213.37 98.914C212.59 97.498 212.2 95.83 212.2 93.91C212.2 92.05 212.554 90.376 213.262 88.888C213.97 87.388 214.996 86.206 216.34 85.342C217.696 84.466 219.322 84.028 221.218 84.028C223.114 84.028 224.704 84.43 225.988 85.234C227.284 86.026 228.256 87.136 228.904 88.564C229.564 89.98 229.894 91.618 229.894 93.478V94.9H217.402ZM217.384 91.768H224.98C224.98 91.024 224.842 90.34 224.566 89.716C224.29 89.092 223.87 88.6 223.306 88.24C222.754 87.88 222.058 87.7 221.218 87.7C220.402 87.7 219.706 87.898 219.13 88.294C218.566 88.678 218.134 89.182 217.834 89.806C217.534 90.43 217.384 91.084 217.384 91.768ZM235.668 108.94C234.396 108.94 233.496 108.832 232.968 108.616C232.452 108.412 232.194 108.31 232.194 108.31V104.962L234.03 105.034C234.834 105.082 235.482 105.04 235.974 104.908C236.466 104.788 236.838 104.626 237.09 104.422C237.354 104.218 237.54 104.002 237.648 103.774C237.756 103.558 237.834 103.384 237.882 103.252L238.224 102.226L230.988 84.388H236.19L240.654 96.52L245.172 84.388H250.302L242.76 103.108C242.112 104.692 241.428 105.904 240.708 106.744C239.988 107.584 239.208 108.16 238.368 108.472C237.54 108.784 236.64 108.94 235.668 108.94ZM263.46 103.36C262.176 103.36 260.916 103.198 259.68 102.874C258.444 102.55 257.316 102.064 256.296 101.416C255.276 100.768 254.43 99.958 253.758 98.986C253.098 98.014 252.702 96.874 252.57 95.566H257.952C258.132 96.358 258.474 97.024 258.978 97.564C259.482 98.104 260.118 98.518 260.886 98.806C261.654 99.094 262.506 99.238 263.442 99.238C264.402 99.238 265.278 99.118 266.07 98.878C266.862 98.638 267.498 98.278 267.978 97.798C268.458 97.306 268.698 96.694 268.698 95.962C268.698 95.302 268.5 94.762 268.104 94.342C267.72 93.922 267.198 93.58 266.538 93.316C265.878 93.052 265.128 92.836 264.288 92.668L259.788 91.75C257.82 91.378 256.26 90.598 255.108 89.41C253.956 88.21 253.362 86.614 253.326 84.622C253.314 82.99 253.746 81.58 254.622 80.392C255.51 79.192 256.71 78.268 258.222 77.62C259.746 76.972 261.45 76.648 263.334 76.648C265.578 76.648 267.462 77.002 268.986 77.71C270.522 78.406 271.686 79.354 272.478 80.554C273.282 81.742 273.696 83.068 273.72 84.532H268.446C268.35 83.62 268.074 82.894 267.618 82.354C267.162 81.814 266.574 81.424 265.854 81.184C265.146 80.944 264.336 80.824 263.424 80.824C262.728 80.824 262.092 80.902 261.516 81.058C260.952 81.214 260.472 81.436 260.076 81.724C259.68 82 259.374 82.33 259.158 82.714C258.942 83.098 258.834 83.53 258.834 84.01C258.834 84.766 259.086 85.378 259.59 85.846C260.094 86.314 261.036 86.698 262.416 86.998L266.88 87.916C268.476 88.228 269.742 88.69 270.678 89.302C271.626 89.914 272.334 90.604 272.802 91.372C273.282 92.14 273.594 92.926 273.738 93.73C273.894 94.522 273.972 95.254 273.972 95.926C273.972 97.33 273.528 98.596 272.64 99.724C271.764 100.84 270.54 101.728 268.968 102.388C267.396 103.036 265.56 103.36 263.46 103.36ZM277.98 103V76.252H283.2V87.07C283.5 86.638 283.878 86.212 284.334 85.792C284.79 85.36 285.36 85 286.044 84.712C286.728 84.424 287.562 84.28 288.546 84.28C289.734 84.28 290.814 84.514 291.786 84.982C292.77 85.438 293.556 86.104 294.144 86.98C294.744 87.856 295.044 88.924 295.044 90.184V103H289.77V90.958C289.77 90.118 289.464 89.476 288.852 89.032C288.252 88.576 287.52 88.348 286.656 88.348C286.092 88.348 285.546 88.45 285.018 88.654C284.49 88.858 284.058 89.17 283.722 89.59C283.398 89.998 283.236 90.508 283.236 91.12V103H277.98ZM307.312 103.36C305.488 103.36 303.898 102.97 302.542 102.19C301.198 101.41 300.154 100.306 299.41 98.878C298.678 97.45 298.312 95.758 298.312 93.802C298.312 91.846 298.678 90.136 299.41 88.672C300.154 87.208 301.198 86.068 302.542 85.252C303.898 84.436 305.494 84.028 307.33 84.028C309.166 84.028 310.756 84.43 312.1 85.234C313.444 86.026 314.482 87.154 315.214 88.618C315.946 90.082 316.312 91.81 316.312 93.802C316.312 95.674 315.952 97.33 315.232 98.77C314.524 100.198 313.498 101.32 312.154 102.136C310.822 102.952 309.208 103.36 307.312 103.36ZM307.33 99.454C308.254 99.454 308.998 99.184 309.562 98.644C310.126 98.104 310.534 97.396 310.786 96.52C311.05 95.632 311.182 94.666 311.182 93.622C311.182 92.638 311.062 91.708 310.822 90.832C310.594 89.956 310.198 89.248 309.634 88.708C309.07 88.168 308.302 87.898 307.33 87.898C306.406 87.898 305.656 88.156 305.08 88.672C304.516 89.176 304.102 89.866 303.838 90.742C303.574 91.606 303.442 92.566 303.442 93.622C303.442 94.594 303.562 95.53 303.802 96.43C304.042 97.318 304.444 98.044 305.008 98.608C305.572 99.172 306.346 99.454 307.33 99.454ZM319.816 108.796V84.388H325.09L325.108 87.07C325.384 86.626 325.72 86.224 326.116 85.864C326.524 85.492 326.974 85.168 327.466 84.892C327.958 84.616 328.492 84.406 329.068 84.262C329.644 84.106 330.25 84.028 330.886 84.028C332.266 84.028 333.496 84.37 334.576 85.054C335.656 85.726 336.502 86.77 337.114 88.186C337.738 89.59 338.05 91.378 338.05 93.55C338.05 95.806 337.714 97.66 337.042 99.112C336.382 100.552 335.47 101.62 334.306 102.316C333.142 103.012 331.828 103.36 330.364 103.36C329.764 103.36 329.2 103.276 328.672 103.108C328.144 102.952 327.652 102.73 327.196 102.442C326.752 102.154 326.35 101.824 325.99 101.452C325.642 101.068 325.336 100.654 325.072 100.21V108.796H319.816ZM329.104 99.508C330.244 99.508 331.198 99.034 331.966 98.086C332.746 97.138 333.136 95.638 333.136 93.586C333.136 91.786 332.764 90.382 332.02 89.374C331.288 88.354 330.316 87.844 329.104 87.844C327.748 87.844 326.734 88.396 326.062 89.5C325.402 90.592 325.072 91.954 325.072 93.586C325.072 94.63 325.216 95.602 325.504 96.502C325.804 97.402 326.248 98.128 326.836 98.68C327.436 99.232 328.192 99.508 329.104 99.508Z" fill="#FF0000"/>
</svg>
