<svg width="180" height="180" viewBox="0 0 180 180" fill="none" xmlns="http://www.w3.org/2000/svg">
<rect width="180" height="180" fill="white"/>
<path fill-rule="evenodd" clip-rule="evenodd" d="M90.3772 36.2312C72.958 36.2312 58.837 50.4388 58.837 67.9649C58.837 85.491 72.958 99.6987 90.3772 99.6987C107.796 99.6987 121.917 85.491 121.917 67.9649C121.917 50.4388 107.796 36.2312 90.3772 36.2312ZM54.6316 67.9649C54.6316 48.102 70.6354 32 90.3772 32C110.119 32 126.123 48.102 126.123 67.9649C126.123 87.8278 110.119 103.93 90.3772 103.93C70.6354 103.93 54.6316 87.8278 54.6316 67.9649Z" fill="#000469"/>
<path fill-rule="evenodd" clip-rule="evenodd" d="M90.3772 32C91.5424 32 92.487 32.9481 92.487 34.1177V48.0967L108.539 59.7749L121.495 54.7325C122.582 54.3097 123.804 54.851 124.225 55.9415C124.646 57.032 124.107 58.2588 123.021 58.6816L109.936 63.7738L103.99 82.5962L112.627 93.0001C113.373 93.8986 113.252 95.234 112.357 95.9828C111.462 96.7315 110.131 96.6101 109.385 95.7116L100.641 85.179H80.4755L71.3418 95.7439C70.5781 96.6273 69.2457 96.7219 68.3656 95.9553C67.4856 95.1888 67.3913 93.8512 68.155 92.9679L76.8604 82.8983L70.8185 63.7738L57.7337 58.6816C56.6473 58.2588 56.108 57.032 56.5292 55.9415C56.9504 54.851 58.1726 54.3097 59.259 54.7325L72.2157 59.7749L88.2674 48.0967V34.1177C88.2674 32.9481 89.212 32 90.3772 32ZM90.3772 51.7928L74.9954 62.9835L80.6694 80.9435H100.085L105.759 62.9835L90.3772 51.7928Z" fill="#000469"/>
<path d="M14.4695 128.957C14.5207 128.233 14.3288 127.673 13.8939 127.276C13.4653 126.879 12.7874 126.68 11.8599 126.68C11.2459 126.68 10.7214 126.76 10.2865 126.92C9.85154 127.074 9.50935 127.292 9.2599 127.573C9.01046 127.849 8.85375 128.169 8.78979 128.534C8.73222 128.822 8.74822 129.078 8.83776 129.303C8.92731 129.527 9.08401 129.725 9.30787 129.898C9.53813 130.071 9.82276 130.222 10.1618 130.35C10.5071 130.478 10.8941 130.59 11.3226 130.686L12.9345 131.07C13.8683 131.282 14.6774 131.563 15.3618 131.916C16.0526 132.262 16.6122 132.681 17.0408 133.174C17.4693 133.661 17.7635 134.221 17.9234 134.855C18.0833 135.489 18.0961 136.2 17.9618 136.988C17.7571 138.231 17.2678 139.297 16.4939 140.187C15.7264 141.077 14.7222 141.759 13.4813 142.233C12.2469 142.707 10.811 142.944 9.17356 142.944C7.53615 142.944 6.145 142.698 5.0001 142.205C3.86159 141.705 3.0365 140.952 2.52481 139.947C2.01312 138.941 1.8756 137.673 2.11226 136.143H6.65029C6.57994 136.777 6.65989 137.305 6.89015 137.728C7.1268 138.15 7.49138 138.471 7.98388 138.688C8.47638 138.906 9.07122 139.015 9.76839 139.015C10.408 139.015 10.9677 138.929 11.4474 138.756C11.9335 138.583 12.3204 138.343 12.6083 138.035C12.9025 137.728 13.0816 137.376 13.1455 136.978C13.2095 136.613 13.1487 136.296 12.9632 136.027C12.7842 135.758 12.4771 135.525 12.0422 135.326C11.6137 135.128 11.0508 134.948 10.3536 134.788L8.38684 134.308C6.76223 133.911 5.53098 133.277 4.69309 132.406C3.86159 131.535 3.56737 130.353 3.81042 128.861C4.0151 127.637 4.52039 126.568 5.3263 125.652C6.13861 124.736 7.16518 124.025 8.40602 123.519C9.65326 123.007 11.0252 122.751 12.5219 122.751C14.0442 122.751 15.3234 123.01 16.3596 123.529C17.4021 124.041 18.1537 124.765 18.6142 125.7C19.0811 126.629 19.2154 127.714 19.0172 128.957H14.4695Z" fill="#000469"/>
<path d="M18.5279 148.228L21.9242 127.938H26.5678L26.1552 130.465H26.2991C26.555 130.017 26.894 129.584 27.3161 129.168C27.7446 128.752 28.2595 128.412 28.8608 128.15C29.462 127.881 30.1496 127.746 30.9235 127.746C31.9469 127.746 32.8583 128.015 33.6578 128.553C34.4573 129.091 35.0394 129.921 35.404 131.041C35.7685 132.162 35.8069 133.59 35.5191 135.326C35.2441 136.998 34.7452 138.397 34.0224 139.524C33.306 140.651 32.4554 141.497 31.4704 142.06C30.4854 142.624 29.4524 142.906 28.3715 142.906C27.6295 142.906 27.0027 142.784 26.491 142.541C25.9857 142.297 25.586 141.977 25.2917 141.58C24.9975 141.183 24.7928 140.757 24.6777 140.302H24.5434L23.2386 148.228H18.5279ZM25.2917 135.316C25.1638 136.111 25.1574 136.802 25.2725 137.392C25.3877 137.981 25.6211 138.439 25.9729 138.765C26.3311 139.086 26.7948 139.246 27.3641 139.246C27.9397 139.246 28.4514 139.086 28.8991 138.765C29.3533 138.439 29.7338 137.981 30.0408 137.392C30.3478 136.802 30.5717 136.111 30.7124 135.316C30.834 134.522 30.8372 133.834 30.722 133.251C30.6133 132.668 30.3862 132.217 30.0408 131.896C29.6954 131.576 29.2317 131.416 28.6497 131.416C28.0804 131.416 27.5623 131.573 27.0954 131.887C26.6349 132.201 26.2511 132.649 25.9441 133.232C25.6371 133.815 25.4197 134.51 25.2917 135.316Z" fill="#000469"/>
<path d="M43.6238 142.973C42.0695 142.973 40.7871 142.653 39.7765 142.012C38.7723 141.372 38.0655 140.479 37.6562 139.332C37.2468 138.186 37.1669 136.854 37.4163 135.336C37.6658 133.824 38.1807 132.498 38.961 131.358C39.7413 130.218 40.7391 129.331 41.9544 128.697C43.1696 128.063 44.548 127.746 46.0895 127.746C47.6373 127.746 48.9133 128.067 49.9175 128.707C50.9281 129.347 51.6381 130.241 52.0474 131.387C52.4632 132.534 52.5463 133.869 52.2969 135.393C52.0474 136.905 51.5293 138.231 50.7426 139.371C49.9559 140.504 48.9581 141.388 47.7492 142.022C46.5404 142.656 45.1652 142.973 43.6238 142.973ZM44.1514 139.428C44.7271 139.428 45.242 139.255 45.6961 138.909C46.1566 138.564 46.5436 138.08 46.857 137.459C47.1704 136.838 47.3943 136.117 47.5286 135.297C47.6629 134.49 47.6757 133.783 47.567 133.174C47.4646 132.559 47.2471 132.082 46.9145 131.743C46.582 131.397 46.131 131.224 45.5618 131.224C44.9861 131.224 44.468 131.4 44.0075 131.752C43.547 132.098 43.16 132.582 42.8466 133.203C42.5396 133.818 42.319 134.538 42.1846 135.365C42.0503 136.171 42.0343 136.879 42.1367 137.488C42.239 138.096 42.4597 138.573 42.7987 138.919C43.1377 139.258 43.5886 139.428 44.1514 139.428Z" fill="#000469"/>
<path d="M53.4817 142.695L55.9379 127.938H60.4951L60.0441 130.628H60.1977C60.6262 129.655 61.1859 128.931 61.8766 128.457C62.5674 127.977 63.3158 127.737 64.1217 127.737C64.3391 127.737 64.5566 127.753 64.7741 127.785C64.9979 127.81 65.209 127.849 65.4073 127.9L64.7165 131.993C64.499 131.909 64.2144 131.848 63.8626 131.81C63.5108 131.765 63.191 131.743 62.9032 131.743C62.3467 131.743 61.8287 131.868 61.349 132.117C60.8756 132.361 60.4727 132.703 60.1401 133.145C59.8139 133.581 59.5996 134.093 59.4973 134.682L58.1733 142.695H53.4817Z" fill="#000469"/>
<path d="M76.3134 127.938L75.7282 131.397H66.4315L67.0167 127.938H76.3134ZM69.54 124.403H74.2315L71.9673 138.054C71.9225 138.343 71.9289 138.576 71.9865 138.756C72.0504 138.929 72.1656 139.054 72.3319 139.13C72.5046 139.201 72.7156 139.236 72.9651 139.236C73.1378 139.236 73.3296 139.217 73.5407 139.178C73.7518 139.14 73.9117 139.111 74.0204 139.092L74.1739 142.483C73.9245 142.554 73.5887 142.634 73.1666 142.723C72.7508 142.819 72.2647 142.88 71.7082 142.906C70.5825 142.951 69.6519 142.819 68.9163 142.512C68.1872 142.198 67.6723 141.711 67.3717 141.052C67.0775 140.392 67.0199 139.566 67.199 138.573L69.54 124.403Z" fill="#000469"/>
<path d="M88.3659 123.785V125.354H80.0446V132.414H87.0691V133.984H80.0446V142.695H78.1534V123.785H88.3659Z" fill="#000469"/>
<path d="M90.6127 135.282C90.6127 133.767 90.9099 132.442 91.5043 131.305C92.1167 130.151 92.9542 129.267 94.0169 128.654C95.0976 128.023 96.3133 127.707 97.6642 127.707C99.0691 127.707 100.276 128.032 101.284 128.681C102.311 129.33 103.05 130.16 103.5 131.17V127.924H105.391V142.695H103.5V139.421C103.032 140.431 102.284 141.27 101.257 141.937C100.249 142.586 99.0421 142.911 97.6372 142.911C96.3043 142.911 95.0976 142.595 94.0169 141.964C92.9542 141.333 92.1167 140.44 91.5043 139.286C90.9099 138.132 90.6127 136.797 90.6127 135.282ZM103.5 135.309C103.5 134.119 103.257 133.073 102.77 132.171C102.284 131.269 101.618 130.575 100.771 130.088C99.9426 129.601 99.0241 129.357 98.0154 129.357C96.9708 129.357 96.0342 129.592 95.2056 130.061C94.3771 130.53 93.7197 131.215 93.2334 132.117C92.7651 133.001 92.5309 134.056 92.5309 135.282C92.5309 136.49 92.7651 137.554 93.2334 138.474C93.7197 139.376 94.3771 140.07 95.2056 140.557C96.0342 141.026 96.9708 141.261 98.0154 141.261C99.0241 141.261 99.9426 141.017 100.771 140.53C101.618 140.043 102.284 139.349 102.77 138.447C103.257 137.545 103.5 136.499 103.5 135.309Z" fill="#000469"/>
<path d="M114.788 142.911C113.095 142.911 111.708 142.523 110.627 141.748C109.564 140.954 108.97 139.881 108.844 138.528H110.789C110.879 139.358 111.267 140.034 111.951 140.557C112.653 141.062 113.59 141.315 114.761 141.315C115.787 141.315 116.589 141.071 117.165 140.584C117.76 140.097 118.057 139.493 118.057 138.772C118.057 138.267 117.895 137.852 117.571 137.527C117.246 137.203 116.832 136.95 116.328 136.77C115.841 136.572 115.175 136.364 114.328 136.148C113.23 135.859 112.338 135.571 111.654 135.282C110.969 134.993 110.384 134.57 109.898 134.011C109.429 133.433 109.195 132.667 109.195 131.711C109.195 130.99 109.411 130.322 109.844 129.709C110.276 129.096 110.888 128.609 111.681 128.248C112.473 127.888 113.374 127.707 114.383 127.707C115.968 127.707 117.246 128.113 118.219 128.925C119.192 129.718 119.714 130.818 119.786 132.225H117.895C117.841 131.359 117.499 130.665 116.868 130.142C116.256 129.601 115.409 129.33 114.328 129.33C113.374 129.33 112.599 129.556 112.005 130.007C111.411 130.458 111.113 131.017 111.113 131.684C111.113 132.261 111.285 132.739 111.627 133.118C111.987 133.479 112.428 133.767 112.951 133.984C113.473 134.182 114.175 134.407 115.058 134.66C116.121 134.948 116.967 135.228 117.598 135.498C118.228 135.769 118.768 136.166 119.219 136.689C119.669 137.212 119.903 137.906 119.921 138.772C119.921 139.565 119.705 140.278 119.273 140.909C118.84 141.522 118.237 142.009 117.462 142.37C116.688 142.731 115.796 142.911 114.788 142.911Z" fill="#000469"/>
<path d="M130.505 127.653C131.622 127.653 132.622 127.888 133.504 128.357C134.405 128.825 135.107 129.547 135.612 130.521C136.134 131.477 136.395 132.649 136.395 134.038V142.695H134.531V134.254C134.531 132.649 134.126 131.423 133.315 130.575C132.523 129.727 131.433 129.303 130.046 129.303C128.623 129.303 127.489 129.754 126.642 130.656C125.795 131.558 125.372 132.883 125.372 134.633V142.695H123.481V122.675H125.372V130.44C125.84 129.556 126.525 128.871 127.425 128.384C128.344 127.897 129.371 127.653 130.505 127.653Z" fill="#000469"/>
<path d="M141.523 125.137C141.145 125.137 140.821 125.002 140.551 124.731C140.281 124.461 140.145 124.127 140.145 123.731C140.145 123.334 140.281 123.009 140.551 122.757C140.821 122.486 141.145 122.351 141.523 122.351C141.902 122.351 142.226 122.486 142.496 122.757C142.766 123.009 142.901 123.334 142.901 123.731C142.901 124.127 142.766 124.461 142.496 124.731C142.226 125.002 141.902 125.137 141.523 125.137ZM142.469 127.924V142.695H140.578V127.924H142.469Z" fill="#000469"/>
<path d="M153.209 142.911C151.822 142.911 150.57 142.604 149.453 141.991C148.355 141.36 147.481 140.476 146.833 139.34C146.202 138.186 145.887 136.842 145.887 135.309C145.887 133.776 146.211 132.442 146.86 131.305C147.508 130.151 148.391 129.267 149.507 128.654C150.624 128.023 151.876 127.707 153.263 127.707C154.65 127.707 155.901 128.023 157.018 128.654C158.153 129.267 159.035 130.151 159.666 131.305C160.314 132.442 160.638 133.776 160.638 135.309C160.638 136.824 160.314 138.159 159.666 139.313C159.017 140.467 158.126 141.36 156.991 141.991C155.856 142.604 154.596 142.911 153.209 142.911ZM153.209 141.261C154.181 141.261 155.082 141.044 155.91 140.611C156.739 140.161 157.405 139.493 157.91 138.61C158.432 137.708 158.693 136.608 158.693 135.309C158.693 134.011 158.441 132.919 157.937 132.036C157.432 131.134 156.766 130.467 155.937 130.034C155.109 129.583 154.208 129.357 153.236 129.357C152.263 129.357 151.362 129.583 150.534 130.034C149.705 130.467 149.039 131.134 148.535 132.036C148.048 132.919 147.805 134.011 147.805 135.309C147.805 136.608 148.048 137.708 148.535 138.61C149.039 139.493 149.696 140.161 150.507 140.611C151.335 141.044 152.236 141.261 153.209 141.261Z" fill="#000469"/>
<path d="M171.002 127.653C172.767 127.653 174.208 128.203 175.325 129.303C176.442 130.385 177 131.964 177 134.038V142.695H175.136V134.254C175.136 132.649 174.731 131.423 173.92 130.575C173.128 129.727 172.038 129.303 170.651 129.303C169.228 129.303 168.093 129.754 167.247 130.656C166.4 131.558 165.977 132.883 165.977 134.633V142.695H164.086V127.924H165.977V130.44C166.445 129.538 167.121 128.853 168.003 128.384C168.886 127.897 169.885 127.653 171.002 127.653Z" fill="#000469"/>
</svg>
