<svg width="29" height="29" viewBox="0 0 29 29" fill="none" xmlns="http://www.w3.org/2000/svg">
<path d="M21.75 9.66666H24.1667C24.4871 9.66666 24.7945 9.79397 25.0211 10.0206C25.2477 10.2472 25.375 10.5545 25.375 10.875V25.375C25.375 25.6955 25.2477 26.0028 25.0211 26.2294C24.7945 26.456 24.4871 26.5833 24.1667 26.5833H4.83333C4.51286 26.5833 4.20552 26.456 3.97891 26.2294C3.75231 26.0028 3.625 25.6955 3.625 25.375V10.875C3.625 10.5545 3.75231 10.2472 3.97891 10.0206C4.20552 9.79397 4.51286 9.66666 4.83333 9.66666H7.25V8.45833C7.25 6.53551 8.01384 4.69144 9.37348 3.3318C10.7331 1.97217 12.5772 1.20833 14.5 1.20833C16.4228 1.20833 18.2669 1.97217 19.6265 3.3318C20.9862 4.69144 21.75 6.53551 21.75 8.45833V9.66666ZM19.3333 9.66666V8.45833C19.3333 7.17645 18.8241 5.94707 17.9177 5.04065C17.0113 4.13422 15.7819 3.62499 14.5 3.62499C13.2181 3.62499 11.9887 4.13422 11.0823 5.04065C10.1759 5.94707 9.66667 7.17645 9.66667 8.45833V9.66666H19.3333ZM13.2917 16.9167V19.3333H15.7083V16.9167H13.2917ZM8.45833 16.9167V19.3333H10.875V16.9167H8.45833ZM18.125 16.9167V19.3333H20.5417V16.9167H18.125Z" fill="white"/>
</svg>
