<svg width="29" height="29" viewBox="0 0 29 29" fill="none" xmlns="http://www.w3.org/2000/svg">
<path d="M14.5 5.4375C16.3737 5.4375 17.9387 3.9773 18.125 2.15234C18.142 1.98242 17.9551 1.8125 17.7852 1.8125C17.6933 1.81259 17.6022 1.82988 17.5167 1.86348C17.5054 1.86801 16.3216 2.32227 14.5 2.32227C12.6785 2.32227 11.4924 1.86914 11.4833 1.86348C11.3868 1.82989 11.2853 1.81267 11.1831 1.8125H11.1797C11.1374 1.81474 11.0959 1.82532 11.0577 1.84363C11.0194 1.86193 10.9852 1.88761 10.9568 1.91918C10.9285 1.95075 10.9067 1.9876 10.8927 2.02761C10.8787 2.06762 10.8726 2.11001 10.875 2.15234C11.0648 3.97391 12.6309 5.4375 14.5 5.4375Z" fill="white"/>
<path d="M27.4873 5.09202L20.1643 2.52846C20.1329 2.51752 20.0995 2.51361 20.0665 2.517C20.0335 2.52038 20.0016 2.53099 19.9731 2.54807C19.9446 2.56514 19.9203 2.58827 19.9017 2.61581C19.8832 2.64336 19.8709 2.67464 19.8658 2.70745C19.6539 3.9768 18.9987 5.12987 18.0166 5.96158C17.0346 6.79329 15.7894 7.24973 14.5025 7.24973C13.2156 7.24973 11.9703 6.79329 10.9883 5.96158C10.0063 5.12987 9.35104 3.9768 9.13916 2.70745C9.1342 2.67409 9.12184 2.64227 9.10301 2.61429C9.08417 2.58632 9.05933 2.5629 9.0303 2.54575C9.00126 2.5286 8.96876 2.51815 8.93517 2.51516C8.90158 2.51217 8.86775 2.51671 8.83614 2.52846L1.51307 5.09202C1.3081 5.16377 1.13572 5.30674 1.02729 5.4949C0.918865 5.68306 0.88161 5.9039 0.922309 6.11721L1.86424 11.1016C1.90049 11.2916 1.99657 11.465 2.13843 11.5964C2.28029 11.7279 2.46049 11.8105 2.65268 11.8323L5.42127 12.1449C5.53429 12.1577 5.63838 12.2124 5.71288 12.2984C5.78738 12.3843 5.82684 12.4951 5.82342 12.6088L5.40825 26.2535C5.40274 26.4294 5.44855 26.603 5.54008 26.7533C5.6316 26.9036 5.76489 27.0239 5.92368 27.0997C6.05567 27.1594 6.19913 27.1893 6.34395 27.1875H22.6565C22.8013 27.1893 22.9447 27.1594 23.0767 27.0997C23.2355 27.0239 23.3688 26.9036 23.4603 26.7533C23.5519 26.603 23.5977 26.4294 23.5922 26.2535L23.177 12.6088C23.1736 12.4951 23.213 12.3843 23.2875 12.2984C23.362 12.2124 23.4661 12.1577 23.5791 12.1449L26.3477 11.8323C26.5399 11.8105 26.7201 11.7279 26.862 11.5964C27.0038 11.465 27.0999 11.2916 27.1362 11.1016L28.0781 6.11721C28.1188 5.9039 28.0815 5.68306 27.9731 5.4949C27.8647 5.30674 27.6923 5.16377 27.4873 5.09202V5.09202Z" fill="white"/>
</svg>
